<?xml version="1.0" encoding="UTF-8" standalone="no"?>
<!-- Created with Inkscape (http://www.inkscape.org/) -->

<svg
   xmlns:dc="http://purl.org/dc/elements/1.1/"
   xmlns:cc="http://creativecommons.org/ns#"
   xmlns:rdf="http://www.w3.org/1999/02/22-rdf-syntax-ns#"
   xmlns:svg="http://www.w3.org/2000/svg"
   xmlns="http://www.w3.org/2000/svg"
   xmlns:sodipodi="http://sodipodi.sourceforge.net/DTD/sodipodi-0.dtd"
   xmlns:inkscape="http://www.inkscape.org/namespaces/inkscape"
   width="92.939224mm"
   height="96.293999mm"
   viewBox="0 0 92.939226 96.294"
   version="1.1"
   id="svg2280"
   inkscape:version="0.92.4 (5da689c313, 2019-01-14)"
   sodipodi:docname="cubelogoicon.svg">
  <defs
     id="defs2274" />
  <sodipodi:namedview
     id="base"
     pagecolor="#ffffff"
     bordercolor="#666666"
     borderopacity="1.0"
     inkscape:pageopacity="0.0"
     inkscape:pageshadow="2"
     inkscape:zoom="0.35"
     inkscape:cx="-798.65262"
     inkscape:cy="201.97283"
     inkscape:document-units="mm"
     inkscape:current-layer="layer1"
     showgrid="false"
     fit-margin-top="0"
     fit-margin-left="0"
     fit-margin-right="0"
     fit-margin-bottom="0"
     inkscape:window-width="1920"
     inkscape:window-height="1001"
     inkscape:window-x="-9"
     inkscape:window-y="-9"
     inkscape:window-maximized="1" />
  <metadata
     id="metadata2277">
    <rdf:RDF>
      <cc:Work
         rdf:about="">
        <dc:format>image/svg+xml</dc:format>
        <dc:type
           rdf:resource="http://purl.org/dc/dcmitype/StillImage" />
        <dc:title></dc:title>
      </cc:Work>
    </rdf:RDF>
  </metadata>
  <g
     inkscape:label="Layer 1"
     inkscape:groupmode="layer"
     id="layer1"
     transform="translate(-51.048268,-105.97798)">
    <g
       transform="matrix(1.2703334,0,0,1.2703334,-56.140339,213.4704)"
       id="g1110-9-6-9-9"
       style="fill:#7d7dff;fill-opacity:1">
      <path
         id="path981-8-4-5-9"
         d="m 121.27898,-69.321962 12.12272,4.445558 -12.31309,4.591379 -12.61251,-4.561841 12.80337,-4.475146 z"
         inkscape:connector-curvature="0"
         style="opacity:0.9;fill:#7d7dff;fill-opacity:1;fill-rule:evenodd;stroke-width:0.50492448" />
      <g
         id="g1098-9-3-7-0"
         style="fill:#7d7dff;fill-opacity:1">
        <path
           style="opacity:0.9;fill:#7d7dff;fill-opacity:1;fill-rule:evenodd;stroke-width:0.50492448"
           inkscape:connector-curvature="0"
           d="m 133.74252,-73.733486 12.4671,3.927152 -11.2482,4.459189 -12.29441,-4.466006 z"
           id="path955-0-6-9-2" />
        <path
           style="opacity:0.9;fill:#7d7dff;fill-opacity:1;fill-rule:evenodd;stroke-width:0.50492448"
           inkscape:connector-curvature="0"
           d="m 144.27019,-77.165458 12.40347,3.439292 -9.01845,3.563809 -12.21007,-4.138109 8.82557,-2.864992 z"
           id="path971-8-6-2-1" />
        <path
           style="opacity:0.9;fill:#7d7dff;fill-opacity:1;fill-rule:evenodd;stroke-width:0.50492448"
           inkscape:connector-curvature="0"
           d="m 131.11339,-81.370923 12.02225,3.725382 -9.69657,2.92826 -11.02402,-3.608494 z"
           id="path973-8-9-8-1" />
        <path
           style="opacity:0.9;fill:#7d7dff;fill-opacity:1;fill-rule:evenodd;stroke-width:0.50492448"
           inkscape:connector-curvature="0"
           d="m 121.69857,-84.617487 8.78063,2.803744 -9.55923,3.071304 -8.86799,-3.094682 9.64659,-2.780316 z"
           id="path975-3-0-1-9" />
        <path
           style="opacity:0.9;fill:#7d7dff;fill-opacity:1;fill-rule:evenodd;stroke-width:0.50492448"
           inkscape:connector-curvature="0"
           d="m 120.77606,-78.007672 11.80464,3.704076 -11.51884,4.167696 -11.50068,-4.032175 11.21438,-3.839597 z"
           id="path977-5-4-9-1" />
        <path
           style="opacity:0.9;fill:#7d7dff;fill-opacity:1;fill-rule:evenodd;stroke-width:0.50492448"
           inkscape:connector-curvature="0"
           d="m 111.12796,-81.413236 8.61603,3.080545 -11.25375,3.694885 -9.249213,-3.223389 11.886933,-3.551991 z"
           id="path979-9-9-5-7" />
        <path
           style="opacity:0.9;fill:#7d7dff;fill-opacity:1;fill-rule:evenodd;stroke-width:0.50492448"
           inkscape:connector-curvature="0"
           d="m 108.14437,-73.876885 11.59306,4.074841 -12.57817,4.43248 -11.818263,-4.455908 z"
           id="path983-7-6-1-1" />
        <path
           style="opacity:0.9;fill:#7d7dff;fill-opacity:1;fill-rule:evenodd;stroke-width:0.50492448"
           inkscape:connector-curvature="0"
           d="m 97.966597,-77.547181 9.039673,3.349215 -12.472143,3.902864 -9.609724,-3.232325 13.041694,-4.019754 z"
           id="path985-1-3-8-8" />
      </g>
    </g>
    <g
       transform="matrix(1.2703334,0,0,1.2703334,-56.140339,213.4704)"
       id="g1264-7-4-8-4"
       style="fill:#3232ff;fill-opacity:1">
      <path
         id="path953-1-4-6-8"
         d="m 146.67364,-68.277273 -0.54385,15.241652 -10.78166,5.232532 0.31166,-15.937438 11.01391,-4.536544 z"
         inkscape:connector-curvature="0"
         style="opacity:0.9;fill:#3232ff;fill-opacity:1;fill-rule:evenodd;stroke-width:0.50492448" />
      <path
         id="path961-9-1-4-1"
         d="m 146.05763,-51.185579 -0.54083,14.393377 -10.4908,5.381485 0.13836,-14.515568 10.89324,-5.259294 z"
         inkscape:connector-curvature="0"
         style="opacity:0.9;fill:#3232ff;fill-opacity:1;fill-rule:evenodd;stroke-width:0.50492448" />
      <path
         id="path963-1-7-3-4"
         d="m 145.3356,-34.879547 -0.71054,13.056338 -10.74227,6.159566 0.94865,-13.512278 10.50445,-5.703626 z"
         inkscape:connector-curvature="0"
         style="opacity:0.9;fill:#3232ff;fill-opacity:1;fill-rule:evenodd;stroke-width:0.50492448" />
      <path
         id="path965-3-5-4-1"
         d="m 155.86327,-40.727079 -0.82167,13.120969 -8.84376,4.839903 0.61223,-12.871534 9.0533,-5.089639 z"
         inkscape:connector-curvature="0"
         style="opacity:0.9;fill:#3232ff;fill-opacity:1;fill-rule:evenodd;stroke-width:0.50492448" />
      <path
         id="path967-8-3-6-7"
         d="m 156.40353,-56.042447 -0.53556,13.592567 -8.73773,4.956691 0.2573,-14.147984 9.01594,-4.400921 z"
         inkscape:connector-curvature="0"
         style="opacity:0.9;fill:#3232ff;fill-opacity:1;fill-rule:evenodd;stroke-width:0.50492448" />
      <path
         id="path969-6-4-2-1"
         d="m 157.53961,-72.965496 -0.69446,15.006356 -9.05584,4.321144 0.36324,-15.260333 9.38706,-4.067269 z"
         inkscape:connector-curvature="0"
         style="opacity:0.9;fill:#3232ff;fill-opacity:1;fill-rule:evenodd;stroke-width:0.50492448" />
      <path
         id="path999-6-5-9-3"
         d="m 121.42894,-42.131777 12.0899,-5.204762 0.41141,-16.074776 -12.42216,4.864695 -0.079,16.414589 z"
         inkscape:connector-curvature="0"
         style="opacity:0.9;fill:#3232ff;fill-opacity:1;fill-rule:evenodd;stroke-width:0.50492448" />
      <path
         id="path1001-6-0-3-1"
         d="m 121.51527,-24.750761 11.53348,-5.953061 0.70328,-14.698856 -12.22676,5.224958 z"
         inkscape:connector-curvature="0"
         style="opacity:0.9;fill:#3232ff;fill-opacity:1;fill-rule:evenodd;stroke-width:0.50492448" />
      <path
         id="path1003-7-6-8-4"
         d="m 121.66777,-8.8153408 11.07501,-6.3963802 0.22437,-13.371418 -11.61075,6.097467 0.31141,13.6703312 z"
         inkscape:connector-curvature="0"
         style="opacity:0.9;fill:#3232ff;fill-opacity:1;fill-rule:evenodd;stroke-width:0.50492448" />
    </g>
    <g
       transform="matrix(1.2703334,0,0,1.2703334,-56.140339,213.4704)"
       id="g1253-4-5-0-3"
       style="fill:#c7c7ff;fill-opacity:1">
      <path
         id="path957-1-1-2-8"
         d="m 95.029967,-68.403504 11.185093,4.542351 0.40379,15.940466 -11.097733,-5.195168 -0.49071,-15.287598 z"
         inkscape:connector-curvature="0"
         style="opacity:0.9;fill:#c7c7ff;fill-opacity:1;fill-rule:evenodd;stroke-width:0.50492448" />
      <path
         id="path959-2-4-4-5"
         d="m 95.534887,-51.241626 11.144193,5.065403 0.39721,14.859929 -10.943733,-5.637988 -0.59809,-14.287344 z"
         inkscape:connector-curvature="0"
         style="opacity:0.9;fill:#c7c7ff;fill-opacity:1;fill-rule:evenodd;stroke-width:0.50492448" />
      <path
         id="path987-4-2-0-3"
         d="m 84.378581,-73.164941 9.595586,4.292362 0.61419,15.567833 -9.123987,-4.871462 -1.086043,-14.988683 z"
         inkscape:connector-curvature="0"
         style="opacity:0.9;fill:#c7c7ff;fill-opacity:1;fill-rule:evenodd;stroke-width:0.50492448" />
      <path
         id="path989-0-3-8-4"
         d="m 85.476691,-56.171707 9.228506,4.635357 0.39909,14.191914 -8.7256,-5.52236 -0.902097,-13.30476 z"
         inkscape:connector-curvature="0"
         style="opacity:0.9;fill:#c7c7ff;fill-opacity:1;fill-rule:evenodd;stroke-width:0.50492448" />
      <path
         id="path991-7-8-5-7"
         d="m 86.297092,-40.368581 9.270415,5.389058 0.0216,11.667796 -8.40699,-4.488728 -0.884931,-12.568582 z"
         inkscape:connector-curvature="0"
         style="opacity:0.9;fill:#c7c7ff;fill-opacity:1;fill-rule:evenodd;stroke-width:0.50492448" />
      <path
         id="path993-1-5-3-6"
         d="m 107.47332,-63.244691 12.49536,4.697869 -0.0954,16.480229 -12.0167,-5.675855 -0.38311,-15.502191 z"
         inkscape:connector-curvature="0"
         style="opacity:0.9;fill:#c7c7ff;fill-opacity:1;fill-rule:evenodd;stroke-width:0.50492448" />
      <path
         id="path995-2-6-4-3"
         d="m 107.84847,-45.643527 12.04044,5.750584 0.095,15.915221 -11.92279,-6.745793 -0.21267,-14.920012 z"
         inkscape:connector-curvature="0"
         style="opacity:0.9;fill:#c7c7ff;fill-opacity:1;fill-rule:evenodd;stroke-width:0.50492448" />
      <path
         id="path997-3-5-0-2"
         d="m 108.35795,-28.618484 11.58146,6.294895 0.31225,13.2088242 -11.90107,-6.9220042 0.008,-12.581715 z"
         inkscape:connector-curvature="0"
         style="opacity:0.9;fill:#c7c7ff;fill-opacity:1;fill-rule:evenodd;stroke-width:0.50492448" />
      <path
         id="path1005-2-8-2-8"
         d="m 96.515447,-34.637183 10.153533,5.342605 0.70427,12.655926 -10.669063,-5.808644 z"
         inkscape:connector-curvature="0"
         style="opacity:0.9;fill:#c7c7ff;fill-opacity:1;fill-rule:evenodd;stroke-width:0.50492448" />
    </g>
  </g>
</svg>
