<?xml version="1.0" encoding="UTF-8" standalone="no"?>
<!-- Generator: Adobe Illustrator 18.1.1, SVG Export Plug-In . SVG Version: 6.00 Build 0)  -->

<svg
   xmlns:dc="http://purl.org/dc/elements/1.1/"
   xmlns:cc="http://creativecommons.org/ns#"
   xmlns:rdf="http://www.w3.org/1999/02/22-rdf-syntax-ns#"
   xmlns:svg="http://www.w3.org/2000/svg"
   xmlns="http://www.w3.org/2000/svg"
   xmlns:sodipodi="http://sodipodi.sourceforge.net/DTD/sodipodi-0.dtd"
   xmlns:inkscape="http://www.inkscape.org/namespaces/inkscape"
   version="1.1"
   id="Capa_1"
   x="0px"
   y="0px"
   viewBox="0 0 341.20001 339.20001"
   enable-background="new 0 0 1400 980"
   xml:space="preserve"
   sodipodi:docname="globe.svg"
   width="341.20001"
   height="339.20001"
   inkscape:version="0.92.4 (5da689c313, 2019-01-14)"><metadata
   id="metadata1228"><rdf:RDF><cc:Work
       rdf:about=""><dc:format>image/svg+xml</dc:format><dc:type
         rdf:resource="http://purl.org/dc/dcmitype/StillImage" /><dc:title></dc:title></cc:Work></rdf:RDF></metadata><defs
   id="defs1226" /><sodipodi:namedview
   pagecolor="#ffffff"
   bordercolor="#666666"
   borderopacity="1"
   objecttolerance="10"
   gridtolerance="10"
   guidetolerance="10"
   inkscape:pageopacity="0"
   inkscape:pageshadow="2"
   inkscape:window-width="1920"
   inkscape:window-height="1001"
   id="namedview1224"
   showgrid="false"
   fit-margin-top="0"
   fit-margin-left="0"
   fit-margin-right="0"
   fit-margin-bottom="0"
   inkscape:zoom="0.8244898"
   inkscape:cx="645.6"
   inkscape:cy="-79.1"
   inkscape:window-x="-9"
   inkscape:window-y="-9"
   inkscape:window-maximized="1"
   inkscape:current-layer="Capa_1" />

<g
   id="g883"
   transform="translate(-54.4,-71.7)"
   style="fill:#ffffff">
	<path
   d="M 358.4,134.7 C 333.5,103.6 298,81.3 257.3,73.5 c 12,13.4 28.2,34.2 41.7,61.2 z"
   id="path851"
   inkscape:connector-curvature="0"
   style="fill:#ffffff" />
	<path
   d="m 323.9,224.9 c 0.2,2.8 0.2,5.5 0.3,8.3 h 71.4 C 394.2,203 384.9,174.8 369.7,150.6 h -63.4 c 9,21.7 15.9,46.6 17.6,74.3 z"
   id="path853"
   inkscape:connector-curvature="0"
   style="fill:#ffffff" />
	<path
   d="m 304,331.1 h 66 c 15,-24 24.2,-52 25.5,-82.1 h -71.6 c -1.3,27.6 -8.1,55 -19.9,82.1 z"
   id="path855"
   inkscape:connector-curvature="0"
   style="fill:#ffffff" />
	<path
   d="m 254.8,409.2 c 41.9,-7.4 78.6,-30.1 104,-62.2 h -62.4 c -10.8,20.9 -24.6,41.7 -41.6,62.2 z"
   id="path857"
   inkscape:connector-curvature="0"
   style="fill:#ffffff" />
	<path
   d="m 238.9,347 v 56.4 c 15.9,-18.7 29,-37.5 39.5,-56.4 z"
   id="path859"
   inkscape:connector-curvature="0"
   style="fill:#ffffff" />
	<path
   d="m 308,249.1 h -69.1 v 82.1 h 47.6 c 12.8,-27.3 20,-54.7 21.5,-82.1 z"
   id="path861"
   inkscape:connector-curvature="0"
   style="fill:#ffffff" />
	<path
   d="m 238.9,77.2 v 57.5 h 41.9 c -14.6,-27 -31.7,-46.9 -41.9,-57.5 z"
   id="path863"
   inkscape:connector-curvature="0"
   style="fill:#ffffff" />
	<path
   d="m 308,226 c -1.7,-28.3 -9.4,-53.7 -19.3,-75.4 h -49.8 v 82.6 h 69.3 c 0,-2.4 0,-4.8 -0.2,-7.2 z"
   id="path865"
   inkscape:connector-curvature="0"
   style="fill:#ffffff" />
	<path
   d="m 91.2,347 c 27.7,35 68.8,58.9 115.5,63.9 -17.6,-21.1 -31.9,-42.4 -43,-63.9 z"
   id="path867"
   inkscape:connector-curvature="0"
   style="fill:#ffffff" />
	<path
   d="m 173.6,331.1 h 49.5 V 249 h -71 c 1.5,27.5 8.7,54.9 21.5,82.1 z"
   id="path869"
   inkscape:connector-curvature="0"
   style="fill:#ffffff" />
	<path
   d="m 152.1,226 c -0.1,2.4 -0.2,4.8 -0.2,7.2 h 71.2 v -82.6 h -51.7 c -9.9,21.8 -17.6,47.2 -19.3,75.4 z"
   id="path871"
   inkscape:connector-curvature="0"
   style="fill:#ffffff" />
	<path
   d="M 223.1,134.7 V 75.3 c -9.8,10 -28.2,30.7 -43.8,59.4 z"
   id="path873"
   inkscape:connector-curvature="0"
   style="fill:#ffffff" />
	<path
   d="M 136.2,249.1 H 54.5 c 1.4,30 10.6,58 25.5,82.1 h 76.2 c -11.9,-27.2 -18.6,-54.6 -20,-82.1 z"
   id="path875"
   inkscape:connector-curvature="0"
   style="fill:#ffffff" />
	<path
   d="m 204.5,71.7 c -45.5,5.5 -85.6,28.9 -112.9,63 h 69.5 c 14.1,-28.3 31.3,-49.8 43.4,-63 z"
   id="path877"
   inkscape:connector-curvature="0"
   style="fill:#ffffff" />
	<path
   d="M 223.1,405.6 V 347 h -41.4 c 10.9,19.7 24.7,39.2 41.4,58.6 z"
   id="path879"
   inkscape:connector-curvature="0"
   style="fill:#ffffff" />
	<path
   d="m 136.3,224.9 c 1.7,-27.7 8.5,-52.6 17.6,-74.3 H 80.3 C 65.1,174.8 55.8,203 54.4,233.2 H 136 c 0.1,-2.8 0.1,-5.6 0.3,-8.3 z"
   id="path881"
   inkscape:connector-curvature="0"
   style="fill:#ffffff" />
</g>






</svg>